<svg width="100" height="101" viewBox="0 0 100 101" fill="none" xmlns="http://www.w3.org/2000/svg">
<circle cx="50" cy="50.4961" r="50" fill="white"/>
<path d="M10 63.9481C14.1162 69.3966 17.7089 74.7248 22.0259 79.6864C25.0521 83.1656 29.7779 84.8505 35.5434 84.7848C46.1638 84.6645 56.7842 84.659 67.4046 84.8067C70.732 84.8505 72.4746 83.9205 73.3494 81.1853C66.6732 81.1853 60.255 81.2072 53.8369 81.1634C52.8401 81.158 51.2123 81.6995 51.2912 80.0967C51.3557 78.7729 52.4457 78.5158 53.966 78.5322C59.0933 78.5759 64.2708 78.193 69.3336 78.6416C74.8052 79.1284 77.8386 77.542 79.3588 73.7346C81.5532 71.6012 78.864 72.285 77.8242 72.2904C69.5344 72.3342 61.2446 72.4381 52.9549 72.5202C52.3453 70.1624 53.5357 69.2489 56.7484 69.2981C64.5003 69.4185 72.2594 69.3419 80.0114 69.3145C81.252 69.3145 82.7077 69.6811 83.5539 68.5651C84.9451 66.7161 86.3148 64.8562 88 62.5859C61.7896 64.8233 36.1673 63.3627 10 63.959L10 63.9481Z" fill="#0F2B4B"/>
<path d="M47.8346 61.8037C45.3176 59.1889 42.2262 59.3144 39.1139 59.3418C32.6746 59.3965 26.2281 59.3691 19.7887 59.3691C18.9569 59.3691 18.0101 59.4897 17.4938 58.8662C16.999 58.2754 17.7377 57.8868 18.1608 57.4766H18.1676C29.0533 46.8914 36.7555 34.8347 45.3034 23.1719L47.8346 20.1689V61.8037ZM51.069 6.99609C52.209 7.01797 52.5245 7.4392 52.9977 7.8877C63.03 17.3186 71.8869 27.3074 77.5378 38.7568C80.3632 44.4844 81.6034 50.3435 78.7995 56.3281C78.3333 57.3183 78.0965 58.478 76.5045 58.9102C70.0723 58.932 63.64 58.9537 57.2077 58.9756C54.7408 58.992 53.1056 60.2291 51.069 61.5693V6.99609Z" fill="#36BED3"/>
</svg>
